# xmcd CD database file
#
# Track frame offsets:
#	150
#	24177
#	49782
#
# Disc length: 982 seconds
#
# Revision: 0
# Processed by: cddbd v1.5.1PL0 Copyright (c) Steve Scherf et al.
# Submitted via: CDex 1.51
#
DISCID=1803d403
DTITLE=Coney Island Jellyfixh - 夜の帰り道
DYEAR=1995
DGENRE=JPop
TTITLE0=夜の帰り道
TTITLE1=踏切が見えるこの場所から
TTITLE2=夜の帰り道(オリジナル・カラオケ)
EXTD=YEAR: 1995
EXTT0=
EXTT1=
EXTT2=
PLAYORDER=
